<?xml version="1.0" encoding="utf-8"?>
<!-- Generator: Adobe Illustrator 21.0.2, SVG Export Plug-In . SVG Version: 6.00 Build 0)  -->
<svg version="1.1" xmlns="http://www.w3.org/2000/svg" xmlns:xlink="http://www.w3.org/1999/xlink" x="0px" y="0px"
	 width="170.657px" height="135.241px" viewBox="0 0 170.657 135.241" style="enable-background:new 0 0 170.657 135.241;"
	 xml:space="preserve">
<style type="text/css">
	.st0{fill:#C8BFC2;}
	.st1{fill:#40C9F1;}
	.st2{display:none;fill:none;stroke:#53AC63;stroke-miterlimit:10;}
</style>
<g id="Слой_2">
</g>
<g id="Слой_3">
</g>
<g id="Слой_4">
	<path class="st0" d="M75.741,127.603c5.361,0.068,10.723,0.137,16.084,0.205c0.073-26.817,0.147-53.634,0.22-80.451
		c0.379-4.048,1.873-13.775,9.523-21.538c6.121-6.211,12.875-9.795,20.281-9.796c13.408-0.001,26.816-0.003,40.224-0.004
		c-4.018-0.502-7.068-3.702-7.334-7.387c-0.307-4.259,3.167-8.32,7.902-8.632c-13.241,0.066-26.483,0.133-39.724,0.199
		c-4.34-0.019-15.414,0.521-26.391,7.955c-2.29,1.551-10.286,7.296-15.597,17.983c-4.347,8.747-4.953,16.747-4.975,21.013
		C75.883,73.968,75.812,100.785,75.741,127.603z"/>
	<path class="st0" d="M8.52,0.054c3.373,1.276,5.579,4.567,5.477,8.165c-0.102,3.618-2.517,6.791-5.982,7.859
		c2.135,0.002,4.332,0.006,6.049,0.009c15.381,0.031,26.917,0.084,30.818-0.024c0.799-0.022,3.203-0.107,6.304,0.514
		c0,0,0,0,0.001,0l0.001,0c0,0,1.941,0.379,3.903,1.092c4.965,1.804,10.001,5.999,10.001,5.999c4.487,3.738,7.58,7.881,9.66,11.349
		c0.461-2.416,1.307-5.576,2.939-9.038c1.578-3.35,3.404-5.948,4.929-7.815c-1.941-2.483-3.806-4.372-5.257-5.713
		c-4.302-3.974-8.164-6.076-8.985-6.514c-2.138-1.142-3.868-1.815-5.279-2.359c-4.408-1.698-7.972-2.428-9.318-2.682
		c-4.143-0.78-7.393-0.847-9.258-0.855C36.829,0.008,24.319-0.037,8.52,0.054z"/>
	<circle class="st1" cx="8.015" cy="8.015" r="8.015"/>
	<circle class="st1" cx="162.642" cy="8.015" r="8.015"/>
	<circle class="st1" cx="83.756" cy="127.226" r="8.015"/>
	<path class="st2" d="M72.74,124.441c5.361,0.068,10.723,0.137,16.084,0.205c0.073-26.817,0.147-53.634,0.22-80.451
		c0.379-4.048,1.873-13.775,9.523-21.538c6.121-6.211,12.875-9.795,20.281-9.796c13.408-0.001,26.816-0.003,40.224-0.004
		c-4.018-0.502-7.068-3.702-7.334-7.387c-0.307-4.259,3.167-8.32,7.902-8.632C146.4-3.096,133.158-3.03,119.917-2.963
		c-4.34-0.019-15.414,0.521-26.391,7.955c-2.29,1.551-10.286,7.296-15.597,17.983c-4.347,8.747-4.953,16.747-4.975,21.013
		C72.882,70.806,72.811,97.623,72.74,124.441z"/>
</g>
</svg>
