<svg xmlns="http://www.w3.org/2000/svg" id="Слой_1" data-name="Слой 1" viewBox="0 0 356.61 383"><defs><style>.cls-1{fill:#808184;fill:#ffffff;}.cls-2{fill:#00adee;}</style></defs><title>logo</title><path class="cls-2" d="M109,98.56a40.1,40.1,0,1,1,27.14-69.63c.82.75,1.61,1.54,2.39,2.37A40.13,40.13,0,0,1,138,86.18a1.89,1.89,0,0,0-.14.14c-.35.33-.69.67-1,1l-.14.14A40,40,0,0,1,109,98.56Z" transform="translate(-19.8 -18.36)"/><path class="cls-2" d="M109,315.73A40.11,40.11,0,0,1,80,247.9l.14-.14c.35-.33.69-.67,1-1a1.89,1.89,0,0,1,.14-.14,40.13,40.13,0,0,0,.53-54.88c-.77-.82-1.56-1.61-2.39-2.37a40.11,40.11,0,1,1,58.88.16q-1,1-2,2a40.11,40.11,0,0,0,.84,55.53l.35.34A40.11,40.11,0,0,1,109,315.73Z" transform="translate(-19.8 -18.36)"/><path class="cls-2" d="M289.35,183.62A40.1,40.1,0,1,1,316.49,114c.82.75,1.61,1.54,2.39,2.37a40.13,40.13,0,0,1-.53,54.88,1.89,1.89,0,0,0-.14.14c-.35.33-.69.67-1,1l-.14.14A40,40,0,0,1,289.35,183.62Z" transform="translate(-19.8 -18.36)"/><path class="cls-2" d="M289.35,400.78a40.11,40.11,0,0,1-29-67.83l.14-.14c.35-.33.69-.67,1-1a1.89,1.89,0,0,1,.14-.14,40.13,40.13,0,0,0,.53-54.88c-.77-.82-1.56-1.61-2.39-2.37a40.11,40.11,0,1,1,58.88.16q-1,1-2,2a40.11,40.11,0,0,0,.84,55.53l.35.34a40.11,40.11,0,0,1-28.51,68.31Z" transform="translate(-19.8 -18.36)"/><path class="cls-1" d="M199.18,275.63a40.1,40.1,0,1,0,27.14,69.63c.82-.75,1.61-1.54,2.39-2.37a40.13,40.13,0,0,0-.53-54.88,1.89,1.89,0,0,1-.14-.14c-.35-.33-.69-.67-1-1l-.14-.14A40,40,0,0,0,199.18,275.63Z" transform="translate(-19.8 -18.36)"/><path class="cls-1" d="M199.18,58.46a40.11,40.11,0,0,0-29,67.83l.14.14c.35.33.69.67,1,1a1.89,1.89,0,0,0,.14.14,40.13,40.13,0,0,1,.53,54.88c-.77.82-1.56,1.61-2.39,2.37a40.11,40.11,0,1,0,58.88-.16q-1-1-2-2a40.11,40.11,0,0,1,.84-55.53l.35-.34a40.11,40.11,0,0,0-28.51-68.31Z" transform="translate(-19.8 -18.36)"/></svg>