<svg id="Слой_1" data-name="Слой 1" xmlns="http://www.w3.org/2000/svg" viewBox="0 0 356.61 476.85"><defs><style>.cls-1{fill:#808184;}.cls-2{fill:#00adee;}</style></defs><title>logo</title><path class="cls-1" d="M19.8,444.51H61.06v7.27H44.35v43.13H36.43V451.79H19.8Z" transform="translate(-19.8 -18.36)"/><path class="cls-1" d="M69.69,494.92v-50.4h23c5.11,0,9.22,1.3,12.17,4a13.35,13.35,0,0,1,4.46,10.37,13.64,13.64,0,0,1-10.95,13.9l15.84,22.18h-9.58L89.42,473.61H77.61v21.31Zm7.92-28.3H92.16c5.76,0,9.14-2.66,9.14-7.49,0-4.61-3.38-7.34-9.14-7.34H77.61Z" transform="translate(-19.8 -18.36)"/><path class="cls-1" d="M117.79,494.92l22-50.69h7.63l22,50.69H161l-5.47-12.53H131.61l-5.4,12.53Zm16.56-19.51h18.43l-9.22-21.17Z" transform="translate(-19.8 -18.36)"/><path class="cls-1" d="M186.69,495.21,165,444.51h8.79l16.71,39.75,16.71-39.75h8.57l-21.6,50.69Z" transform="translate(-19.8 -18.36)"/><path class="cls-1" d="M223.92,494.92v-50.4h35.86v7.27H231.84v12.6h22.75v7.27H231.84v16h28.87v7.27Z" transform="translate(-19.8 -18.36)"/><path class="cls-1" d="M270.07,494.92v-50.4h8v43.13h26.79v7.27Z" transform="translate(-19.8 -18.36)"/><path class="cls-1" d="M308.59,494.92l22-50.69h7.63l22,50.69h-8.5l-5.47-12.53H322.41L317,494.92Zm16.56-19.51h18.43l-9.22-21.17Z" transform="translate(-19.8 -18.36)"/><path class="cls-1" d="M368.49,494.92v-50.4h7.92v50.4Z" transform="translate(-19.8 -18.36)"/><path class="cls-2" d="M109,98.56a40.1,40.1,0,1,1,27.14-69.63c.82.75,1.61,1.54,2.39,2.37A40.13,40.13,0,0,1,138,86.18a1.89,1.89,0,0,0-.14.14c-.35.33-.69.67-1,1l-.14.14A40,40,0,0,1,109,98.56Z" transform="translate(-19.8 -18.36)"/><path class="cls-2" d="M109,315.73A40.11,40.11,0,0,1,80,247.9l.14-.14c.35-.33.69-.67,1-1a1.89,1.89,0,0,1,.14-.14,40.13,40.13,0,0,0,.53-54.88c-.77-.82-1.56-1.61-2.39-2.37a40.11,40.11,0,1,1,58.88.16q-1,1-2,2a40.11,40.11,0,0,0,.84,55.53l.35.34A40.11,40.11,0,0,1,109,315.73Z" transform="translate(-19.8 -18.36)"/><path class="cls-2" d="M289.35,183.62A40.1,40.1,0,1,1,316.49,114c.82.75,1.61,1.54,2.39,2.37a40.13,40.13,0,0,1-.53,54.88,1.89,1.89,0,0,0-.14.14c-.35.33-.69.67-1,1l-.14.14A40,40,0,0,1,289.35,183.62Z" transform="translate(-19.8 -18.36)"/><path class="cls-2" d="M289.35,400.78a40.11,40.11,0,0,1-29-67.83l.14-.14c.35-.33.69-.67,1-1a1.89,1.89,0,0,1,.14-.14,40.13,40.13,0,0,0,.53-54.88c-.77-.82-1.56-1.61-2.39-2.37a40.11,40.11,0,1,1,58.88.16q-1,1-2,2a40.11,40.11,0,0,0,.84,55.53l.35.34a40.11,40.11,0,0,1-28.51,68.31Z" transform="translate(-19.8 -18.36)"/><path class="cls-1" d="M199.18,275.63a40.1,40.1,0,1,0,27.14,69.63c.82-.75,1.61-1.54,2.39-2.37a40.13,40.13,0,0,0-.53-54.88,1.89,1.89,0,0,1-.14-.14c-.35-.33-.69-.67-1-1l-.14-.14A40,40,0,0,0,199.18,275.63Z" transform="translate(-19.8 -18.36)"/><path class="cls-1" d="M199.18,58.46a40.11,40.11,0,0,0-29,67.83l.14.14c.35.33.69.67,1,1a1.89,1.89,0,0,0,.14.14,40.13,40.13,0,0,1,.53,54.88c-.77.82-1.56,1.61-2.39,2.37a40.11,40.11,0,1,0,58.88-.16q-1-1-2-2a40.11,40.11,0,0,1,.84-55.53l.35-.34a40.11,40.11,0,0,0-28.51-68.31Z" transform="translate(-19.8 -18.36)"/></svg>